<mxfile host="app.diagrams.net" modified="2021-01-01T20:50:01.128Z" agent="5.0 (Windows)" etag="ORqBzaSRHGuNpReWuoAj" version="14.1.7" type="github">
  <diagram id="gliDbndyc4allHFkqyv5" name="Main Page Flow">
    <mxGraphModel dx="-464" dy="801" grid="1" gridSize="10" guides="1" tooltips="1" connect="1" arrows="1" fold="1" page="1" pageScale="1" pageWidth="850" pageHeight="1100" math="0" shadow="0">
      <root>
        <mxCell id="0" />
        <mxCell id="1" parent="0" />
        <mxCell id="dd2mqRbAXhT_sp-4Myjd-1" value="" style="strokeWidth=1;shadow=0;dashed=0;align=center;html=1;shape=mxgraph.mockup.containers.browserWindow;rSize=0;strokeColor=#666666;strokeColor2=#008cff;strokeColor3=#c4c4c4;mainText=,;recursiveResize=0;" parent="1" vertex="1">
          <mxGeometry x="940" y="630" width="990" height="1080" as="geometry" />
        </mxCell>
        <mxCell id="dd2mqRbAXhT_sp-4Myjd-100" value="" style="rounded=0;whiteSpace=wrap;html=1;align=left;fillColor=#d0cee2;strokeColor=#56517e;" parent="dd2mqRbAXhT_sp-4Myjd-1" vertex="1">
          <mxGeometry y="230" width="990" height="730" as="geometry" />
        </mxCell>
        <mxCell id="dd2mqRbAXhT_sp-4Myjd-2" value="Page 1" style="strokeWidth=1;shadow=0;dashed=0;align=center;html=1;shape=mxgraph.mockup.containers.anchor;fontSize=17;fontColor=#666666;align=left;" parent="dd2mqRbAXhT_sp-4Myjd-1" vertex="1">
          <mxGeometry x="60" y="12" width="110" height="26" as="geometry" />
        </mxCell>
        <mxCell id="dd2mqRbAXhT_sp-4Myjd-3" value="http://www.hermitapp.me" style="strokeWidth=1;shadow=0;dashed=0;align=center;html=1;shape=mxgraph.mockup.containers.anchor;rSize=0;fontSize=17;fontColor=#666666;align=left;" parent="dd2mqRbAXhT_sp-4Myjd-1" vertex="1">
          <mxGeometry x="130" y="60" width="250" height="26" as="geometry" />
        </mxCell>
        <mxCell id="dd2mqRbAXhT_sp-4Myjd-4" value="" style="rounded=0;whiteSpace=wrap;html=1;fillColor=#fad7ac;strokeColor=#b46504;" parent="dd2mqRbAXhT_sp-4Myjd-1" vertex="1">
          <mxGeometry y="110" width="990" height="120" as="geometry" />
        </mxCell>
        <mxCell id="dd2mqRbAXhT_sp-4Myjd-5" value="" style="verticalLabelPosition=bottom;html=1;verticalAlign=top;align=center;strokeColor=none;fillColor=#00BEF2;shape=mxgraph.azure.user;" parent="dd2mqRbAXhT_sp-4Myjd-1" vertex="1">
          <mxGeometry x="30" y="122.5" width="100" height="95" as="geometry" />
        </mxCell>
        <mxCell id="dd2mqRbAXhT_sp-4Myjd-10" value="Nilan Patel" style="text;html=1;strokeColor=none;fillColor=none;align=center;verticalAlign=middle;whiteSpace=wrap;rounded=0;" parent="dd2mqRbAXhT_sp-4Myjd-1" vertex="1">
          <mxGeometry x="150" y="130" width="70" height="20" as="geometry" />
        </mxCell>
        <mxCell id="dd2mqRbAXhT_sp-4Myjd-11" value="5 Cimmaron Street" style="text;html=1;strokeColor=none;fillColor=none;align=center;verticalAlign=middle;whiteSpace=wrap;rounded=0;" parent="dd2mqRbAXhT_sp-4Myjd-1" vertex="1">
          <mxGeometry x="150" y="150" width="110" height="20" as="geometry" />
        </mxCell>
        <mxCell id="dd2mqRbAXhT_sp-4Myjd-12" value="Log Out" style="rounded=1;fillColor=#e51400;align=center;strokeColor=#B20000;html=1;fontSize=12;fontColor=#ffffff;" parent="dd2mqRbAXhT_sp-4Myjd-1" vertex="1">
          <mxGeometry x="150" y="190" width="52" height="20" as="geometry" />
        </mxCell>
        <mxCell id="dd2mqRbAXhT_sp-4Myjd-14" value="" style="shape=rect;fillColor=#e0e0e0;strokeColor=none;" parent="dd2mqRbAXhT_sp-4Myjd-1" vertex="1">
          <mxGeometry x="680" y="181" width="294" height="38" as="geometry" />
        </mxCell>
        <mxCell id="dd2mqRbAXhT_sp-4Myjd-15" value="" style="html=1;strokeWidth=1;shadow=0;dashed=0;shape=mxgraph.ios7ui.marginRect;rx=3;ry=3;rectMargin=5;strokeColor=none;" parent="dd2mqRbAXhT_sp-4Myjd-14" vertex="1">
          <mxGeometry width="294" height="38" as="geometry" />
        </mxCell>
        <mxCell id="dd2mqRbAXhT_sp-4Myjd-16" value="Search" style="shape=mxgraph.ios7.icons.looking_glass;strokeColor=#e0e0e0;fillColor=none;fontColor=#e0e0e0;labelPosition=right;verticalLabelPosition=middle;align=left;verticalAlign=middle;fontSize=6;fontStyle=0;spacingTop=2;" parent="dd2mqRbAXhT_sp-4Myjd-14" vertex="1">
          <mxGeometry x="0.5" y="0.5" width="6" height="6" relative="1" as="geometry">
            <mxPoint x="-17" y="-3" as="offset" />
          </mxGeometry>
        </mxCell>
        <mxCell id="dd2mqRbAXhT_sp-4Myjd-17" value="" style="verticalLabelPosition=bottom;shadow=0;dashed=0;align=center;html=1;verticalAlign=top;strokeWidth=1;shape=mxgraph.mockup.misc.shoppingCart;strokeColor=#999999;" parent="dd2mqRbAXhT_sp-4Myjd-1" vertex="1">
          <mxGeometry x="920" y="120" width="50" height="50" as="geometry" />
        </mxCell>
        <mxCell id="dd2mqRbAXhT_sp-4Myjd-24" value="" style="rounded=0;whiteSpace=wrap;html=1;fillColor=#fad9d5;strokeColor=#ae4132;" parent="dd2mqRbAXhT_sp-4Myjd-1" vertex="1">
          <mxGeometry y="960" width="990" height="120" as="geometry" />
        </mxCell>
        <mxCell id="dd2mqRbAXhT_sp-4Myjd-25" value="Total: " style="text;html=1;strokeColor=none;fillColor=none;align=center;verticalAlign=middle;whiteSpace=wrap;rounded=0;" parent="dd2mqRbAXhT_sp-4Myjd-1" vertex="1">
          <mxGeometry x="690" y="140" width="40" height="20" as="geometry" />
        </mxCell>
        <mxCell id="dd2mqRbAXhT_sp-4Myjd-23" value="" style="rounded=0;whiteSpace=wrap;html=1;fillColor=#b0e3e6;strokeColor=#0e8088;" parent="dd2mqRbAXhT_sp-4Myjd-1" vertex="1">
          <mxGeometry y="250" width="180" height="690" as="geometry" />
        </mxCell>
        <mxCell id="dd2mqRbAXhT_sp-4Myjd-26" value="" style="rounded=0;whiteSpace=wrap;html=1;fillColor=#b0e3e6;strokeColor=#0e8088;" parent="dd2mqRbAXhT_sp-4Myjd-1" vertex="1">
          <mxGeometry x="195" y="250" width="645" height="690" as="geometry" />
        </mxCell>
        <mxCell id="dd2mqRbAXhT_sp-4Myjd-31" value="Text" style="text;html=1;strokeColor=none;fillColor=none;align=center;verticalAlign=middle;whiteSpace=wrap;rounded=0;" parent="dd2mqRbAXhT_sp-4Myjd-1" vertex="1">
          <mxGeometry y="280" width="180" height="40" as="geometry" />
        </mxCell>
        <mxCell id="dd2mqRbAXhT_sp-4Myjd-32" value="Text" style="text;html=1;strokeColor=none;fillColor=none;align=center;verticalAlign=middle;whiteSpace=wrap;rounded=0;" parent="dd2mqRbAXhT_sp-4Myjd-1" vertex="1">
          <mxGeometry y="340" width="180" height="40" as="geometry" />
        </mxCell>
        <mxCell id="dd2mqRbAXhT_sp-4Myjd-33" value="Text" style="text;html=1;strokeColor=none;fillColor=none;align=center;verticalAlign=middle;whiteSpace=wrap;rounded=0;" parent="dd2mqRbAXhT_sp-4Myjd-1" vertex="1">
          <mxGeometry y="390" width="180" height="40" as="geometry" />
        </mxCell>
        <mxCell id="dd2mqRbAXhT_sp-4Myjd-34" value="Text" style="text;html=1;strokeColor=none;fillColor=none;align=center;verticalAlign=middle;whiteSpace=wrap;rounded=0;" parent="dd2mqRbAXhT_sp-4Myjd-1" vertex="1">
          <mxGeometry y="450" width="180" height="40" as="geometry" />
        </mxCell>
        <mxCell id="dd2mqRbAXhT_sp-4Myjd-35" value="Text" style="text;html=1;strokeColor=none;fillColor=none;align=center;verticalAlign=middle;whiteSpace=wrap;rounded=0;" parent="dd2mqRbAXhT_sp-4Myjd-1" vertex="1">
          <mxGeometry y="510" width="180" height="40" as="geometry" />
        </mxCell>
        <mxCell id="dd2mqRbAXhT_sp-4Myjd-36" value="Text" style="text;html=1;strokeColor=none;fillColor=none;align=center;verticalAlign=middle;whiteSpace=wrap;rounded=0;" parent="dd2mqRbAXhT_sp-4Myjd-1" vertex="1">
          <mxGeometry y="575" width="180" height="45" as="geometry" />
        </mxCell>
        <mxCell id="dd2mqRbAXhT_sp-4Myjd-37" value="Text" style="text;html=1;strokeColor=none;fillColor=none;align=center;verticalAlign=middle;whiteSpace=wrap;rounded=0;" parent="dd2mqRbAXhT_sp-4Myjd-1" vertex="1">
          <mxGeometry y="630" width="180" height="40" as="geometry" />
        </mxCell>
        <mxCell id="dd2mqRbAXhT_sp-4Myjd-53" value="" style="verticalLabelPosition=bottom;shadow=0;dashed=0;align=center;html=1;verticalAlign=top;strokeWidth=1;shape=mxgraph.mockup.graphics.simpleIcon;strokeColor=#999999;fillColor=#ffffff;" parent="dd2mqRbAXhT_sp-4Myjd-1" vertex="1">
          <mxGeometry x="220" y="800" width="115" height="120" as="geometry" />
        </mxCell>
        <mxCell id="dd2mqRbAXhT_sp-4Myjd-101" value="" style="verticalLabelPosition=bottom;shadow=0;dashed=0;align=center;html=1;verticalAlign=top;strokeWidth=1;shape=mxgraph.mockup.graphics.simpleIcon;strokeColor=#999999;fillColor=#ffffff;" parent="dd2mqRbAXhT_sp-4Myjd-1" vertex="1">
          <mxGeometry x="437.5" y="800" width="115" height="120" as="geometry" />
        </mxCell>
        <mxCell id="dd2mqRbAXhT_sp-4Myjd-102" value="" style="verticalLabelPosition=bottom;shadow=0;dashed=0;align=center;html=1;verticalAlign=top;strokeWidth=1;shape=mxgraph.mockup.graphics.simpleIcon;strokeColor=#999999;fillColor=#ffffff;" parent="dd2mqRbAXhT_sp-4Myjd-1" vertex="1">
          <mxGeometry x="680" y="800" width="115" height="120" as="geometry" />
        </mxCell>
        <mxCell id="dd2mqRbAXhT_sp-4Myjd-103" value="" style="verticalLabelPosition=bottom;shadow=0;dashed=0;align=center;html=1;verticalAlign=top;strokeWidth=1;shape=mxgraph.mockup.graphics.simpleIcon;strokeColor=#999999;fillColor=#ffffff;" parent="dd2mqRbAXhT_sp-4Myjd-1" vertex="1">
          <mxGeometry x="220" y="610" width="115" height="120" as="geometry" />
        </mxCell>
        <mxCell id="dd2mqRbAXhT_sp-4Myjd-104" value="" style="verticalLabelPosition=bottom;shadow=0;dashed=0;align=center;html=1;verticalAlign=top;strokeWidth=1;shape=mxgraph.mockup.graphics.simpleIcon;strokeColor=#999999;fillColor=#ffffff;" parent="dd2mqRbAXhT_sp-4Myjd-1" vertex="1">
          <mxGeometry x="437.5" y="610" width="115" height="120" as="geometry" />
        </mxCell>
        <mxCell id="dd2mqRbAXhT_sp-4Myjd-105" value="" style="verticalLabelPosition=bottom;shadow=0;dashed=0;align=center;html=1;verticalAlign=top;strokeWidth=1;shape=mxgraph.mockup.graphics.simpleIcon;strokeColor=#999999;fillColor=#ffffff;" parent="dd2mqRbAXhT_sp-4Myjd-1" vertex="1">
          <mxGeometry x="680" y="610" width="115" height="120" as="geometry" />
        </mxCell>
        <mxCell id="dd2mqRbAXhT_sp-4Myjd-106" value="" style="verticalLabelPosition=bottom;shadow=0;dashed=0;align=center;html=1;verticalAlign=top;strokeWidth=1;shape=mxgraph.mockup.graphics.simpleIcon;strokeColor=#999999;fillColor=#ffffff;" parent="dd2mqRbAXhT_sp-4Myjd-1" vertex="1">
          <mxGeometry x="220" y="430" width="115" height="120" as="geometry" />
        </mxCell>
        <mxCell id="dd2mqRbAXhT_sp-4Myjd-107" value="" style="verticalLabelPosition=bottom;shadow=0;dashed=0;align=center;html=1;verticalAlign=top;strokeWidth=1;shape=mxgraph.mockup.graphics.simpleIcon;strokeColor=#999999;fillColor=#ffffff;" parent="dd2mqRbAXhT_sp-4Myjd-1" vertex="1">
          <mxGeometry x="437.5" y="430" width="115" height="120" as="geometry" />
        </mxCell>
        <mxCell id="dd2mqRbAXhT_sp-4Myjd-108" value="" style="verticalLabelPosition=bottom;shadow=0;dashed=0;align=center;html=1;verticalAlign=top;strokeWidth=1;shape=mxgraph.mockup.graphics.simpleIcon;strokeColor=#999999;fillColor=#ffffff;" parent="dd2mqRbAXhT_sp-4Myjd-1" vertex="1">
          <mxGeometry x="680" y="430" width="115" height="120" as="geometry" />
        </mxCell>
        <mxCell id="dd2mqRbAXhT_sp-4Myjd-109" value="" style="verticalLabelPosition=bottom;shadow=0;dashed=0;align=center;html=1;verticalAlign=top;strokeWidth=1;shape=mxgraph.mockup.graphics.simpleIcon;strokeColor=#999999;fillColor=#ffffff;" parent="dd2mqRbAXhT_sp-4Myjd-1" vertex="1">
          <mxGeometry x="220" y="260" width="115" height="120" as="geometry" />
        </mxCell>
        <mxCell id="dd2mqRbAXhT_sp-4Myjd-110" value="" style="verticalLabelPosition=bottom;shadow=0;dashed=0;align=center;html=1;verticalAlign=top;strokeWidth=1;shape=mxgraph.mockup.graphics.simpleIcon;strokeColor=#999999;fillColor=#ffffff;" parent="dd2mqRbAXhT_sp-4Myjd-1" vertex="1">
          <mxGeometry x="437.5" y="260" width="115" height="120" as="geometry" />
        </mxCell>
        <mxCell id="dd2mqRbAXhT_sp-4Myjd-111" value="" style="verticalLabelPosition=bottom;shadow=0;dashed=0;align=center;html=1;verticalAlign=top;strokeWidth=1;shape=mxgraph.mockup.graphics.simpleIcon;strokeColor=#999999;fillColor=#ffffff;" parent="dd2mqRbAXhT_sp-4Myjd-1" vertex="1">
          <mxGeometry x="680" y="260" width="115" height="120" as="geometry" />
        </mxCell>
        <mxCell id="dd2mqRbAXhT_sp-4Myjd-95" style="edgeStyle=orthogonalEdgeStyle;rounded=0;orthogonalLoop=1;jettySize=auto;html=1;exitX=0.5;exitY=1;exitDx=0;exitDy=0;entryX=0.5;entryY=0;entryDx=0;entryDy=0;fillColor=#b0e3e6;strokeColor=#0e8088;" parent="1" source="dd2mqRbAXhT_sp-4Myjd-62" target="dd2mqRbAXhT_sp-4Myjd-76" edge="1">
          <mxGeometry relative="1" as="geometry" />
        </mxCell>
        <mxCell id="dd2mqRbAXhT_sp-4Myjd-115" style="edgeStyle=orthogonalEdgeStyle;rounded=0;orthogonalLoop=1;jettySize=auto;html=1;exitX=1;exitY=0.5;exitDx=0;exitDy=0;entryX=0.5;entryY=1;entryDx=0;entryDy=0;" parent="1" source="dd2mqRbAXhT_sp-4Myjd-62" target="dd2mqRbAXhT_sp-4Myjd-84" edge="1">
          <mxGeometry relative="1" as="geometry" />
        </mxCell>
        <mxCell id="dd2mqRbAXhT_sp-4Myjd-62" value="&lt;ul&gt;&lt;li&gt;&lt;font style=&quot;font-size: 16px&quot;&gt;&lt;b&gt;request all categories from&lt;/b&gt; &#39;/api/menu/categories&#39; route&lt;/font&gt;&lt;/li&gt;&lt;li&gt;&lt;font style=&quot;font-size: 16px&quot;&gt;Generate list group for every category returned&lt;br&gt;&lt;/font&gt;&lt;/li&gt;&lt;li&gt;&lt;font style=&quot;font-size: 16px&quot;&gt;Using the &lt;font face=&quot;Courier New&quot;&gt;Active items&lt;/font&gt; List Group from &lt;a href=&quot;https://react-bootstrap.github.io/components/list-group/#active-items&quot;&gt;here&lt;/a&gt;.&lt;br&gt;&lt;/font&gt;&lt;/li&gt;&lt;/ul&gt;" style="text;html=1;align=left;verticalAlign=middle;whiteSpace=wrap;rounded=0;spacingRight=1;fillColor=#b0e3e6;strokeColor=#0e8088;" parent="1" vertex="1">
          <mxGeometry x="1950" y="1250" width="350" height="140" as="geometry" />
        </mxCell>
        <mxCell id="dd2mqRbAXhT_sp-4Myjd-76" value="&lt;font style=&quot;font-size: 17px&quot; face=&quot;Courier New&quot;&gt;ListGroup.item&lt;/font&gt;&lt;font style=&quot;font-size: 17px&quot;&gt; containing...&lt;/font&gt;&lt;ul style=&quot;font-size: 17px&quot;&gt;&lt;li&gt;&lt;font style=&quot;font-size: 17px&quot;&gt;The Category Name&lt;/font&gt;&lt;/li&gt;&lt;li&gt;&lt;div&gt;&lt;font style=&quot;font-size: 17px&quot;&gt;onClick() handling for item component, active selection&lt;br&gt;&lt;/font&gt;&lt;/div&gt;&lt;/li&gt;&lt;/ul&gt;" style="rounded=0;whiteSpace=wrap;html=1;align=left;fillColor=#b0e3e6;strokeColor=#0e8088;" parent="1" vertex="1">
          <mxGeometry x="1998" y="1440" width="255" height="160" as="geometry" />
        </mxCell>
        <mxCell id="dd2mqRbAXhT_sp-4Myjd-78" value="&lt;font style=&quot;font-size: 24px&quot;&gt;Categories Component&lt;/font&gt;" style="text;html=1;align=center;verticalAlign=middle;whiteSpace=wrap;rounded=0;fillColor=#b0e3e6;strokeColor=#0e8088;" parent="1" vertex="1">
          <mxGeometry x="1950" y="1220" width="260" height="30" as="geometry" />
        </mxCell>
        <mxCell id="dd2mqRbAXhT_sp-4Myjd-96" style="edgeStyle=orthogonalEdgeStyle;rounded=0;orthogonalLoop=1;jettySize=auto;html=1;exitX=0.5;exitY=1;exitDx=0;exitDy=0;entryX=0.5;entryY=0;entryDx=0;entryDy=0;fillColor=#b0e3e6;strokeColor=#0e8088;" parent="1" edge="1">
          <mxGeometry relative="1" as="geometry">
            <mxPoint x="2592.5" y="1390" as="sourcePoint" />
            <mxPoint x="2592.5" y="1440" as="targetPoint" />
          </mxGeometry>
        </mxCell>
        <mxCell id="dd2mqRbAXhT_sp-4Myjd-83" value="&lt;div&gt;&lt;font style=&quot;font-size: 24px&quot;&gt;Items Component&lt;/font&gt;&lt;/div&gt;" style="text;html=1;align=center;verticalAlign=middle;whiteSpace=wrap;rounded=0;fillColor=#b0e3e6;strokeColor=#0e8088;" parent="1" vertex="1">
          <mxGeometry x="2580" y="1220" width="195" height="30" as="geometry" />
        </mxCell>
        <mxCell id="dd2mqRbAXhT_sp-4Myjd-85" style="edgeStyle=orthogonalEdgeStyle;rounded=0;orthogonalLoop=1;jettySize=auto;html=1;exitX=0.25;exitY=1;exitDx=0;exitDy=0;entryX=0.5;entryY=0;entryDx=0;entryDy=0;" parent="1" source="dd2mqRbAXhT_sp-4Myjd-84" target="dd2mqRbAXhT_sp-4Myjd-78" edge="1">
          <mxGeometry relative="1" as="geometry">
            <Array as="points">
              <mxPoint x="2284" y="1190" />
              <mxPoint x="2080" y="1190" />
            </Array>
          </mxGeometry>
        </mxCell>
        <mxCell id="dd2mqRbAXhT_sp-4Myjd-86" style="edgeStyle=orthogonalEdgeStyle;rounded=0;orthogonalLoop=1;jettySize=auto;html=1;exitX=0.75;exitY=1;exitDx=0;exitDy=0;entryX=0.5;entryY=0;entryDx=0;entryDy=0;" parent="1" source="dd2mqRbAXhT_sp-4Myjd-84" target="dd2mqRbAXhT_sp-4Myjd-83" edge="1">
          <mxGeometry relative="1" as="geometry">
            <Array as="points">
              <mxPoint x="2446" y="1190" />
              <mxPoint x="2678" y="1190" />
            </Array>
          </mxGeometry>
        </mxCell>
        <mxCell id="dd2mqRbAXhT_sp-4Myjd-84" value="&lt;div style=&quot;font-size: 20px&quot;&gt;&lt;font style=&quot;font-size: 20px&quot;&gt;Main Page Component&lt;/font&gt;&lt;/div&gt;" style="rounded=0;whiteSpace=wrap;html=1;align=center;fillColor=#d0cee2;strokeColor=#56517e;" parent="1" vertex="1">
          <mxGeometry x="2202.5" y="1000" width="325" height="130" as="geometry" />
        </mxCell>
        <mxCell id="dd2mqRbAXhT_sp-4Myjd-97" style="edgeStyle=orthogonalEdgeStyle;rounded=0;orthogonalLoop=1;jettySize=auto;html=1;exitX=0.25;exitY=1;exitDx=0;exitDy=0;" parent="1" source="dd2mqRbAXhT_sp-4Myjd-87" target="dd2mqRbAXhT_sp-4Myjd-90" edge="1">
          <mxGeometry relative="1" as="geometry" />
        </mxCell>
        <mxCell id="dd2mqRbAXhT_sp-4Myjd-98" style="edgeStyle=orthogonalEdgeStyle;rounded=0;orthogonalLoop=1;jettySize=auto;html=1;exitX=0.75;exitY=1;exitDx=0;exitDy=0;entryX=0.5;entryY=0;entryDx=0;entryDy=0;" parent="1" source="dd2mqRbAXhT_sp-4Myjd-87" target="dd2mqRbAXhT_sp-4Myjd-93" edge="1">
          <mxGeometry relative="1" as="geometry" />
        </mxCell>
        <mxCell id="dd2mqRbAXhT_sp-4Myjd-99" style="edgeStyle=orthogonalEdgeStyle;rounded=0;orthogonalLoop=1;jettySize=auto;html=1;exitX=0.5;exitY=1;exitDx=0;exitDy=0;entryX=0.5;entryY=0;entryDx=0;entryDy=0;" parent="1" source="dd2mqRbAXhT_sp-4Myjd-87" target="dd2mqRbAXhT_sp-4Myjd-84" edge="1">
          <mxGeometry relative="1" as="geometry" />
        </mxCell>
        <mxCell id="dd2mqRbAXhT_sp-4Myjd-87" value="&lt;div style=&quot;font-size: 32px&quot; align=&quot;center&quot;&gt;&lt;font style=&quot;font-size: 32px&quot;&gt;App.JS&lt;/font&gt;&lt;/div&gt;" style="rounded=0;whiteSpace=wrap;html=1;align=center;" parent="1" vertex="1">
          <mxGeometry x="2200" y="630" width="330" height="120" as="geometry" />
        </mxCell>
        <mxCell id="dd2mqRbAXhT_sp-4Myjd-90" value="&lt;div style=&quot;font-size: 20px&quot;&gt;&lt;font style=&quot;font-size: 20px&quot;&gt;Header Component&lt;/font&gt;&lt;/div&gt;" style="rounded=0;whiteSpace=wrap;html=1;align=center;fillColor=#fad7ac;strokeColor=#b46504;" parent="1" vertex="1">
          <mxGeometry x="1970" y="810" width="325" height="130" as="geometry" />
        </mxCell>
        <mxCell id="dd2mqRbAXhT_sp-4Myjd-93" value="&lt;div style=&quot;font-size: 20px&quot;&gt;&lt;font style=&quot;font-size: 20px&quot;&gt;Footer Component&lt;/font&gt;&lt;/div&gt;" style="rounded=0;whiteSpace=wrap;html=1;align=center;fillColor=#fad9d5;strokeColor=#ae4132;" parent="1" vertex="1">
          <mxGeometry x="2440" y="810" width="325" height="130" as="geometry" />
        </mxCell>
        <mxCell id="dd2mqRbAXhT_sp-4Myjd-112" value="&lt;ul style=&quot;font-size: 17px&quot;&gt;&lt;li&gt;&lt;font style=&quot;font-size: 17px&quot; face=&quot;Courier New&quot;&gt;Card&lt;/font&gt;&lt;font style=&quot;font-size: 17px&quot;&gt; containing..&lt;/font&gt;&lt;/li&gt;&lt;li&gt;&lt;font style=&quot;font-size: 17px&quot;&gt;Image title&lt;br&gt;&lt;/font&gt;&lt;/li&gt;&lt;li&gt;&lt;font style=&quot;font-size: 17px&quot;&gt;Image rendered with src found from &lt;/font&gt;&lt;font style=&quot;font-size: 17px&quot;&gt;&lt;font style=&quot;font-size: 17px&quot;&gt;the &lt;font style=&quot;font-size: 17px&quot; face=&quot;Courier New&quot;&gt;imgesrc&lt;/font&gt; in firestore&lt;/font&gt;&lt;/font&gt;&lt;/li&gt;&lt;li&gt;&lt;font style=&quot;font-size: 17px&quot;&gt;&lt;font style=&quot;font-size: 17px&quot;&gt;Price placeholder&lt;/font&gt;&lt;/font&gt;&lt;/li&gt;&lt;li&gt;&lt;font style=&quot;font-size: 17px&quot;&gt;&lt;font style=&quot;font-size: 17px&quot;&gt;Add to cart button&lt;br&gt;&lt;/font&gt;&lt;/font&gt;&lt;/li&gt;&lt;/ul&gt;" style="rounded=0;whiteSpace=wrap;html=1;align=left;fillColor=#b0e3e6;strokeColor=#0e8088;" parent="1" vertex="1">
          <mxGeometry x="2465" y="1440" width="255" height="160" as="geometry" />
        </mxCell>
        <mxCell id="dd2mqRbAXhT_sp-4Myjd-113" value="&lt;ul&gt;&lt;li&gt;&lt;font style=&quot;font-size: 16px&quot;&gt;&lt;b&gt;request all items from&lt;/b&gt; `/api/menu/${this.state.currentItem}` route&lt;/font&gt;&lt;/li&gt;&lt;li&gt;&lt;font style=&quot;font-size: 16px&quot;&gt;Generate cards for every item returned&lt;br&gt;&lt;/font&gt;&lt;/li&gt;&lt;li&gt;&lt;font style=&quot;font-size: 16px&quot;&gt;Using the &lt;font face=&quot;Courier New&quot;&gt;Header and Footer&lt;/font&gt; card from &lt;a href=&quot;https://react-bootstrap.github.io/components/cards/#header-and-footer&quot;&gt;here&lt;/a&gt; as well as an image&lt;br&gt;&lt;/font&gt;&lt;/li&gt;&lt;/ul&gt;" style="text;html=1;align=left;verticalAlign=middle;whiteSpace=wrap;rounded=0;spacingRight=1;fillColor=#b0e3e6;strokeColor=#0e8088;" parent="1" vertex="1">
          <mxGeometry x="2425" y="1250" width="350" height="140" as="geometry" />
        </mxCell>
        <mxCell id="dd2mqRbAXhT_sp-4Myjd-116" value="&lt;div style=&quot;font-size: 14px&quot;&gt;&lt;font style=&quot;font-size: 14px&quot;&gt;OnClick()&lt;/font&gt;&lt;/div&gt;&lt;div style=&quot;font-size: 14px&quot;&gt;&lt;font style=&quot;font-size: 14px&quot;&gt;&lt;font style=&quot;font-size: 14px&quot;&gt;passes back to main page component (defaulted to some specific category) state containing&lt;/font&gt; active item&lt;br style=&quot;font-size: 14px&quot;&gt;&lt;/font&gt;&lt;/div&gt;" style="text;html=1;strokeColor=none;fillColor=none;align=center;verticalAlign=middle;whiteSpace=wrap;rounded=0;fontSize=14;" parent="1" vertex="1">
          <mxGeometry x="2315" y="1320" width="100" height="150" as="geometry" />
        </mxCell>
      </root>
    </mxGraphModel>
  </diagram>
</mxfile>
